<?xml version="1.0" encoding="utf-8" ?>
<svg baseProfile="full" height="163" version="1.1" viewBox="0 0 797 163" width="797" xmlns="http://www.w3.org/2000/svg" xmlns:ev="http://www.w3.org/2001/xml-events" xmlns:xlink="http://www.w3.org/1999/xlink"><defs><style type="text/css"><![CDATA[
        .bg { fill: #0d1117; stroke: #30363d; rx: 8px; }
        .header { font-family: 'Fira Code', monospace; font-size: 12px; fill: #58a6ff; font-weight: bold; }
        .day-label { font-family: 'Fira Code', monospace; font-size: 9px; fill: #8b949e; }
        .legend-text { font-family: 'Fira Code', monospace; font-size: 9px; fill: #8b949e; }
    ]]></style></defs><rect class="bg" height="163" width="797" x="0" y="0" /><text class="header" x="15" y="22">~/contributions --user=yashvisharma1204</text><text class="day-label" x="8" y="63">Mon</text><text class="day-label" x="8" y="91">Wed</text><text class="day-label" x="8" y="119">Fri</text><rect fill="#26a641" height="11" rx="2" width="11" x="35" y="40" /><rect fill="#161b22" height="11" rx="2" width="11" x="35" y="54" /><rect fill="#161b22" height="11" rx="2" width="11" x="35" y="68" /><rect fill="#161b22" height="11" rx="2" width="11" x="35" y="82" /><rect fill="#161b22" height="11" rx="2" width="11" x="35" y="96" /><rect fill="#161b22" height="11" rx="2" width="11" x="35" y="110" /><rect fill="#161b22" height="11" rx="2" width="11" x="35" y="124" /><rect fill="#161b22" height="11" rx="2" width="11" x="49" y="40" /><rect fill="#161b22" height="11" rx="2" width="11" x="49" y="54" /><rect fill="#161b22" height="11" rx="2" width="11" x="49" y="68" /><rect fill="#161b22" height="11" rx="2" width="11" x="49" y="82" /><rect fill="#161b22" height="11" rx="2" width="11" x="49" y="96" /><rect fill="#161b22" height="11" rx="2" width="11" x="49" y="110" /><rect fill="#161b22" height="11" rx="2" width="11" x="49" y="124" /><rect fill="#0e4429" height="11" rx="2" width="11" x="63" y="40" /><rect fill="#161b22" height="11" rx="2" width="11" x="63" y="54" /><rect fill="#161b22" height="11" rx="2" width="11" x="63" y="68" /><rect fill="#161b22" height="11" rx="2" width="11" x="63" y="82" /><rect fill="#161b22" height="11" rx="2" width="11" x="63" y="96" /><rect fill="#161b22" height="11" rx="2" width="11" x="63" y="110" /><rect fill="#161b22" height="11" rx="2" width="11" x="63" y="124" /><rect fill="#006d32" height="11" rx="2" width="11" x="77" y="40" /><rect fill="#161b22" height="11" rx="2" width="11" x="77" y="54" /><rect fill="#161b22" height="11" rx="2" width="11" x="77" y="68" /><rect fill="#161b22" height="11" rx="2" width="11" x="77" y="82" /><rect fill="#161b22" height="11" rx="2" width="11" x="77" y="96" /><rect fill="#161b22" height="11" rx="2" width="11" x="77" y="110" /><rect fill="#39d353" height="11" rx="2" width="11" x="77" y="124" /><rect fill="#161b22" height="11" rx="2" width="11" x="91" y="40" /><rect fill="#161b22" height="11" rx="2" width="11" x="91" y="54" /><rect fill="#161b22" height="11" rx="2" width="11" x="91" y="68" /><rect fill="#39d353" height="11" rx="2" width="11" x="91" y="82" /><rect fill="#161b22" height="11" rx="2" width="11" x="91" y="96" /><rect fill="#161b22" height="11" rx="2" width="11" x="91" y="110" /><rect fill="#161b22" height="11" rx="2" width="11" x="91" y="124" /><rect fill="#161b22" height="11" rx="2" width="11" x="105" y="40" /><rect fill="#161b22" height="11" rx="2" width="11" x="105" y="54" /><rect fill="#161b22" height="11" rx="2" width="11" x="105" y="68" /><rect fill="#161b22" height="11" rx="2" width="11" x="105" y="82" /><rect fill="#161b22" height="11" rx="2" width="11" x="105" y="96" /><rect fill="#161b22" height="11" rx="2" width="11" x="105" y="110" /><rect fill="#161b22" height="11" rx="2" width="11" x="105" y="124" /><rect fill="#39d353" height="11" rx="2" width="11" x="119" y="40" /><rect fill="#0e4429" height="11" rx="2" width="11" x="119" y="54" /><rect fill="#0e4429" height="11" rx="2" width="11" x="119" y="68" /><rect fill="#161b22" height="11" rx="2" width="11" x="119" y="82" /><rect fill="#161b22" height="11" rx="2" width="11" x="119" y="96" /><rect fill="#26a641" height="11" rx="2" width="11" x="119" y="110" /><rect fill="#0e4429" height="11" rx="2" width="11" x="119" y="124" /><rect fill="#161b22" height="11" rx="2" width="11" x="133" y="40" /><rect fill="#161b22" height="11" rx="2" width="11" x="133" y="54" /><rect fill="#161b22" height="11" rx="2" width="11" x="133" y="68" /><rect fill="#161b22" height="11" rx="2" width="11" x="133" y="82" /><rect fill="#0e4429" height="11" rx="2" width="11" x="133" y="96" /><rect fill="#161b22" height="11" rx="2" width="11" x="133" y="110" /><rect fill="#26a641" height="11" rx="2" width="11" x="133" y="124" /><rect fill="#006d32" height="11" rx="2" width="11" x="147" y="40" /><rect fill="#161b22" height="11" rx="2" width="11" x="147" y="54" /><rect fill="#161b22" height="11" rx="2" width="11" x="147" y="68" /><rect fill="#161b22" height="11" rx="2" width="11" x="147" y="82" /><rect fill="#161b22" height="11" rx="2" width="11" x="147" y="96" /><rect fill="#161b22" height="11" rx="2" width="11" x="147" y="110" /><rect fill="#161b22" height="11" rx="2" width="11" x="147" y="124" /><rect fill="#161b22" height="11" rx="2" width="11" x="161" y="40" /><rect fill="#161b22" height="11" rx="2" width="11" x="161" y="54" /><rect fill="#161b22" height="11" rx="2" width="11" x="161" y="68" /><rect fill="#161b22" height="11" rx="2" width="11" x="161" y="82" /><rect fill="#161b22" height="11" rx="2" width="11" x="161" y="96" /><rect fill="#006d32" height="11" rx="2" width="11" x="161" y="110" /><rect fill="#006d32" height="11" rx="2" width="11" x="161" y="124" /><rect fill="#0e4429" height="11" rx="2" width="11" x="175" y="40" /><rect fill="#0e4429" height="11" rx="2" width="11" x="175" y="54" /><rect fill="#006d32" height="11" rx="2" width="11" x="175" y="68" /><rect fill="#0e4429" height="11" rx="2" width="11" x="175" y="82" /><rect fill="#0e4429" height="11" rx="2" width="11" x="175" y="96" /><rect fill="#161b22" height="11" rx="2" width="11" x="175" y="110" /><rect fill="#39d353" height="11" rx="2" width="11" x="175" y="124" /><rect fill="#161b22" height="11" rx="2" width="11" x="189" y="40" /><rect fill="#161b22" height="11" rx="2" width="11" x="189" y="54" /><rect fill="#161b22" height="11" rx="2" width="11" x="189" y="68" /><rect fill="#161b22" height="11" rx="2" width="11" x="189" y="82" /><rect fill="#161b22" height="11" rx="2" width="11" x="189" y="96" /><rect fill="#161b22" height="11" rx="2" width="11" x="189" y="110" /><rect fill="#161b22" height="11" rx="2" width="11" x="189" y="124" /><rect fill="#006d32" height="11" rx="2" width="11" x="203" y="40" /><rect fill="#161b22" height="11" rx="2" width="11" x="203" y="54" /><rect fill="#161b22" height="11" rx="2" width="11" x="203" y="68" /><rect fill="#161b22" height="11" rx="2" width="11" x="203" y="82" /><rect fill="#161b22" height="11" rx="2" width="11" x="203" y="96" /><rect fill="#006d32" height="11" rx="2" width="11" x="203" y="110" /><rect fill="#161b22" height="11" rx="2" width="11" x="203" y="124" /><rect fill="#161b22" height="11" rx="2" width="11" x="217" y="40" /><rect fill="#161b22" height="11" rx="2" width="11" x="217" y="54" /><rect fill="#161b22" height="11" rx="2" width="11" x="217" y="68" /><rect fill="#161b22" height="11" rx="2" width="11" x="217" y="82" /><rect fill="#39d353" height="11" rx="2" width="11" x="217" y="96" /><rect fill="#161b22" height="11" rx="2" width="11" x="217" y="110" /><rect fill="#161b22" height="11" rx="2" width="11" x="217" y="124" /><rect fill="#0e4429" height="11" rx="2" width="11" x="231" y="40" /><rect fill="#161b22" height="11" rx="2" width="11" x="231" y="54" /><rect fill="#0e4429" height="11" rx="2" width="11" x="231" y="68" /><rect fill="#161b22" height="11" rx="2" width="11" x="231" y="82" /><rect fill="#161b22" height="11" rx="2" width="11" x="231" y="96" /><rect fill="#161b22" height="11" rx="2" width="11" x="231" y="110" /><rect fill="#161b22" height="11" rx="2" width="11" x="231" y="124" /><rect fill="#161b22" height="11" rx="2" width="11" x="245" y="40" /><rect fill="#161b22" height="11" rx="2" width="11" x="245" y="54" /><rect fill="#161b22" height="11" rx="2" width="11" x="245" y="68" /><rect fill="#0e4429" height="11" rx="2" width="11" x="245" y="82" /><rect fill="#006d32" height="11" rx="2" width="11" x="245" y="96" /><rect fill="#26a641" height="11" rx="2" width="11" x="245" y="110" /><rect fill="#0e4429" height="11" rx="2" width="11" x="245" y="124" /><rect fill="#161b22" height="11" rx="2" width="11" x="259" y="40" /><rect fill="#161b22" height="11" rx="2" width="11" x="259" y="54" /><rect fill="#161b22" height="11" rx="2" width="11" x="259" y="68" /><rect fill="#161b22" height="11" rx="2" width="11" x="259" y="82" /><rect fill="#161b22" height="11" rx="2" width="11" x="259" y="96" /><rect fill="#161b22" height="11" rx="2" width="11" x="259" y="110" /><rect fill="#161b22" height="11" rx="2" width="11" x="259" y="124" /><rect fill="#161b22" height="11" rx="2" width="11" x="273" y="40" /><rect fill="#161b22" height="11" rx="2" width="11" x="273" y="54" /><rect fill="#161b22" height="11" rx="2" width="11" x="273" y="68" /><rect fill="#161b22" height="11" rx="2" width="11" x="273" y="82" /><rect fill="#161b22" height="11" rx="2" width="11" x="273" y="96" /><rect fill="#0e4429" height="11" rx="2" width="11" x="273" y="110" /><rect fill="#161b22" height="11" rx="2" width="11" x="273" y="124" /><rect fill="#161b22" height="11" rx="2" width="11" x="287" y="40" /><rect fill="#161b22" height="11" rx="2" width="11" x="287" y="54" /><rect fill="#161b22" height="11" rx="2" width="11" x="287" y="68" /><rect fill="#161b22" height="11" rx="2" width="11" x="287" y="82" /><rect fill="#161b22" height="11" rx="2" width="11" x="287" y="96" /><rect fill="#161b22" height="11" rx="2" width="11" x="287" y="110" /><rect fill="#161b22" height="11" rx="2" width="11" x="287" y="124" /><rect fill="#161b22" height="11" rx="2" width="11" x="301" y="40" /><rect fill="#006d32" height="11" rx="2" width="11" x="301" y="54" /><rect fill="#0e4429" height="11" rx="2" width="11" x="301" y="68" /><rect fill="#161b22" height="11" rx="2" width="11" x="301" y="82" /><rect fill="#161b22" height="11" rx="2" width="11" x="301" y="96" /><rect fill="#161b22" height="11" rx="2" width="11" x="301" y="110" /><rect fill="#161b22" height="11" rx="2" width="11" x="301" y="124" /><rect fill="#161b22" height="11" rx="2" width="11" x="315" y="40" /><rect fill="#161b22" height="11" rx="2" width="11" x="315" y="54" /><rect fill="#161b22" height="11" rx="2" width="11" x="315" y="68" /><rect fill="#161b22" height="11" rx="2" width="11" x="315" y="82" /><rect fill="#161b22" height="11" rx="2" width="11" x="315" y="96" /><rect fill="#0e4429" height="11" rx="2" width="11" x="315" y="110" /><rect fill="#161b22" height="11" rx="2" width="11" x="315" y="124" /><rect fill="#0e4429" height="11" rx="2" width="11" x="329" y="40" /><rect fill="#0e4429" height="11" rx="2" width="11" x="329" y="54" /><rect fill="#161b22" height="11" rx="2" width="11" x="329" y="68" /><rect fill="#161b22" height="11" rx="2" width="11" x="329" y="82" /><rect fill="#161b22" height="11" rx="2" width="11" x="329" y="96" /><rect fill="#161b22" height="11" rx="2" width="11" x="329" y="110" /><rect fill="#161b22" height="11" rx="2" width="11" x="329" y="124" /><rect fill="#161b22" height="11" rx="2" width="11" x="343" y="40" /><rect fill="#161b22" height="11" rx="2" width="11" x="343" y="54" /><rect fill="#161b22" height="11" rx="2" width="11" x="343" y="68" /><rect fill="#161b22" height="11" rx="2" width="11" x="343" y="82" /><rect fill="#26a641" height="11" rx="2" width="11" x="343" y="96" /><rect fill="#161b22" height="11" rx="2" width="11" x="343" y="110" /><rect fill="#161b22" height="11" rx="2" width="11" x="343" y="124" /><rect fill="#161b22" height="11" rx="2" width="11" x="357" y="40" /><rect fill="#161b22" height="11" rx="2" width="11" x="357" y="54" /><rect fill="#161b22" height="11" rx="2" width="11" x="357" y="68" /><rect fill="#0e4429" height="11" rx="2" width="11" x="357" y="82" /><rect fill="#161b22" height="11" rx="2" width="11" x="357" y="96" /><rect fill="#161b22" height="11" rx="2" width="11" x="357" y="110" /><rect fill="#161b22" height="11" rx="2" width="11" x="357" y="124" /><rect fill="#161b22" height="11" rx="2" width="11" x="371" y="40" /><rect fill="#161b22" height="11" rx="2" width="11" x="371" y="54" /><rect fill="#161b22" height="11" rx="2" width="11" x="371" y="68" /><rect fill="#161b22" height="11" rx="2" width="11" x="371" y="82" /><rect fill="#0e4429" height="11" rx="2" width="11" x="371" y="96" /><rect fill="#161b22" height="11" rx="2" width="11" x="371" y="110" /><rect fill="#161b22" height="11" rx="2" width="11" x="371" y="124" /><rect fill="#161b22" height="11" rx="2" width="11" x="385" y="40" /><rect fill="#161b22" height="11" rx="2" width="11" x="385" y="54" /><rect fill="#161b22" height="11" rx="2" width="11" x="385" y="68" /><rect fill="#161b22" height="11" rx="2" width="11" x="385" y="82" /><rect fill="#161b22" height="11" rx="2" width="11" x="385" y="96" /><rect fill="#161b22" height="11" rx="2" width="11" x="385" y="110" /><rect fill="#161b22" height="11" rx="2" width="11" x="385" y="124" /><rect fill="#161b22" height="11" rx="2" width="11" x="399" y="40" /><rect fill="#161b22" height="11" rx="2" width="11" x="399" y="54" /><rect fill="#161b22" height="11" rx="2" width="11" x="399" y="68" /><rect fill="#161b22" height="11" rx="2" width="11" x="399" y="82" /><rect fill="#161b22" height="11" rx="2" width="11" x="399" y="96" /><rect fill="#161b22" height="11" rx="2" width="11" x="399" y="110" /><rect fill="#161b22" height="11" rx="2" width="11" x="399" y="124" /><rect fill="#161b22" height="11" rx="2" width="11" x="413" y="40" /><rect fill="#161b22" height="11" rx="2" width="11" x="413" y="54" /><rect fill="#161b22" height="11" rx="2" width="11" x="413" y="68" /><rect fill="#161b22" height="11" rx="2" width="11" x="413" y="82" /><rect fill="#161b22" height="11" rx="2" width="11" x="413" y="96" /><rect fill="#161b22" height="11" rx="2" width="11" x="413" y="110" /><rect fill="#161b22" height="11" rx="2" width="11" x="413" y="124" /><rect fill="#006d32" height="11" rx="2" width="11" x="427" y="40" /><rect fill="#161b22" height="11" rx="2" width="11" x="427" y="54" /><rect fill="#161b22" height="11" rx="2" width="11" x="427" y="68" /><rect fill="#39d353" height="11" rx="2" width="11" x="427" y="82" /><rect fill="#161b22" height="11" rx="2" width="11" x="427" y="96" /><rect fill="#161b22" height="11" rx="2" width="11" x="427" y="110" /><rect fill="#161b22" height="11" rx="2" width="11" x="427" y="124" /><rect fill="#161b22" height="11" rx="2" width="11" x="441" y="40" /><rect fill="#161b22" height="11" rx="2" width="11" x="441" y="54" /><rect fill="#161b22" height="11" rx="2" width="11" x="441" y="68" /><rect fill="#161b22" height="11" rx="2" width="11" x="441" y="82" /><rect fill="#161b22" height="11" rx="2" width="11" x="441" y="96" /><rect fill="#161b22" height="11" rx="2" width="11" x="441" y="110" /><rect fill="#161b22" height="11" rx="2" width="11" x="441" y="124" /><rect fill="#39d353" height="11" rx="2" width="11" x="455" y="40" /><rect fill="#161b22" height="11" rx="2" width="11" x="455" y="54" /><rect fill="#161b22" height="11" rx="2" width="11" x="455" y="68" /><rect fill="#26a641" height="11" rx="2" width="11" x="455" y="82" /><rect fill="#161b22" height="11" rx="2" width="11" x="455" y="96" /><rect fill="#161b22" height="11" rx="2" width="11" x="455" y="110" /><rect fill="#161b22" height="11" rx="2" width="11" x="455" y="124" /><rect fill="#161b22" height="11" rx="2" width="11" x="469" y="40" /><rect fill="#161b22" height="11" rx="2" width="11" x="469" y="54" /><rect fill="#161b22" height="11" rx="2" width="11" x="469" y="68" /><rect fill="#161b22" height="11" rx="2" width="11" x="469" y="82" /><rect fill="#161b22" height="11" rx="2" width="11" x="469" y="96" /><rect fill="#161b22" height="11" rx="2" width="11" x="469" y="110" /><rect fill="#161b22" height="11" rx="2" width="11" x="469" y="124" /><rect fill="#39d353" height="11" rx="2" width="11" x="483" y="40" /><rect fill="#0e4429" height="11" rx="2" width="11" x="483" y="54" /><rect fill="#161b22" height="11" rx="2" width="11" x="483" y="68" /><rect fill="#161b22" height="11" rx="2" width="11" x="483" y="82" /><rect fill="#161b22" height="11" rx="2" width="11" x="483" y="96" /><rect fill="#161b22" height="11" rx="2" width="11" x="483" y="110" /><rect fill="#161b22" height="11" rx="2" width="11" x="483" y="124" /><rect fill="#161b22" height="11" rx="2" width="11" x="497" y="40" /><rect fill="#161b22" height="11" rx="2" width="11" x="497" y="54" /><rect fill="#161b22" height="11" rx="2" width="11" x="497" y="68" /><rect fill="#161b22" height="11" rx="2" width="11" x="497" y="82" /><rect fill="#161b22" height="11" rx="2" width="11" x="497" y="96" /><rect fill="#161b22" height="11" rx="2" width="11" x="497" y="110" /><rect fill="#161b22" height="11" rx="2" width="11" x="497" y="124" /><rect fill="#161b22" height="11" rx="2" width="11" x="511" y="40" /><rect fill="#161b22" height="11" rx="2" width="11" x="511" y="54" /><rect fill="#161b22" height="11" rx="2" width="11" x="511" y="68" /><rect fill="#161b22" height="11" rx="2" width="11" x="511" y="82" /><rect fill="#161b22" height="11" rx="2" width="11" x="511" y="96" /><rect fill="#161b22" height="11" rx="2" width="11" x="511" y="110" /><rect fill="#161b22" height="11" rx="2" width="11" x="511" y="124" /><rect fill="#161b22" height="11" rx="2" width="11" x="525" y="40" /><rect fill="#161b22" height="11" rx="2" width="11" x="525" y="54" /><rect fill="#161b22" height="11" rx="2" width="11" x="525" y="68" /><rect fill="#161b22" height="11" rx="2" width="11" x="525" y="82" /><rect fill="#161b22" height="11" rx="2" width="11" x="525" y="96" /><rect fill="#161b22" height="11" rx="2" width="11" x="525" y="110" /><rect fill="#161b22" height="11" rx="2" width="11" x="525" y="124" /><rect fill="#161b22" height="11" rx="2" width="11" x="539" y="40" /><rect fill="#161b22" height="11" rx="2" width="11" x="539" y="54" /><rect fill="#161b22" height="11" rx="2" width="11" x="539" y="68" /><rect fill="#161b22" height="11" rx="2" width="11" x="539" y="82" /><rect fill="#161b22" height="11" rx="2" width="11" x="539" y="96" /><rect fill="#161b22" height="11" rx="2" width="11" x="539" y="110" /><rect fill="#161b22" height="11" rx="2" width="11" x="539" y="124" /><rect fill="#161b22" height="11" rx="2" width="11" x="553" y="40" /><rect fill="#161b22" height="11" rx="2" width="11" x="553" y="54" /><rect fill="#161b22" height="11" rx="2" width="11" x="553" y="68" /><rect fill="#26a641" height="11" rx="2" width="11" x="553" y="82" /><rect fill="#0e4429" height="11" rx="2" width="11" x="553" y="96" /><rect fill="#161b22" height="11" rx="2" width="11" x="553" y="110" /><rect fill="#006d32" height="11" rx="2" width="11" x="553" y="124" /><rect fill="#0e4429" height="11" rx="2" width="11" x="567" y="40" /><rect fill="#161b22" height="11" rx="2" width="11" x="567" y="54" /><rect fill="#161b22" height="11" rx="2" width="11" x="567" y="68" /><rect fill="#161b22" height="11" rx="2" width="11" x="567" y="82" /><rect fill="#161b22" height="11" rx="2" width="11" x="567" y="96" /><rect fill="#161b22" height="11" rx="2" width="11" x="567" y="110" /><rect fill="#161b22" height="11" rx="2" width="11" x="567" y="124" /><rect fill="#161b22" height="11" rx="2" width="11" x="581" y="40" /><rect fill="#161b22" height="11" rx="2" width="11" x="581" y="54" /><rect fill="#161b22" height="11" rx="2" width="11" x="581" y="68" /><rect fill="#39d353" height="11" rx="2" width="11" x="581" y="82" /><rect fill="#161b22" height="11" rx="2" width="11" x="581" y="96" /><rect fill="#161b22" height="11" rx="2" width="11" x="581" y="110" /><rect fill="#161b22" height="11" rx="2" width="11" x="581" y="124" /><rect fill="#161b22" height="11" rx="2" width="11" x="595" y="40" /><rect fill="#161b22" height="11" rx="2" width="11" x="595" y="54" /><rect fill="#006d32" height="11" rx="2" width="11" x="595" y="68" /><rect fill="#161b22" height="11" rx="2" width="11" x="595" y="82" /><rect fill="#0e4429" height="11" rx="2" width="11" x="595" y="96" /><rect fill="#161b22" height="11" rx="2" width="11" x="595" y="110" /><rect fill="#161b22" height="11" rx="2" width="11" x="595" y="124" /><rect fill="#161b22" height="11" rx="2" width="11" x="609" y="40" /><rect fill="#0e4429" height="11" rx="2" width="11" x="609" y="54" /><rect fill="#161b22" height="11" rx="2" width="11" x="609" y="68" /><rect fill="#161b22" height="11" rx="2" width="11" x="609" y="82" /><rect fill="#161b22" height="11" rx="2" width="11" x="609" y="96" /><rect fill="#161b22" height="11" rx="2" width="11" x="609" y="110" /><rect fill="#0e4429" height="11" rx="2" width="11" x="609" y="124" /><rect fill="#161b22" height="11" rx="2" width="11" x="623" y="40" /><rect fill="#161b22" height="11" rx="2" width="11" x="623" y="54" /><rect fill="#161b22" height="11" rx="2" width="11" x="623" y="68" /><rect fill="#161b22" height="11" rx="2" width="11" x="623" y="82" /><rect fill="#006d32" height="11" rx="2" width="11" x="623" y="96" /><rect fill="#161b22" height="11" rx="2" width="11" x="623" y="110" /><rect fill="#161b22" height="11" rx="2" width="11" x="623" y="124" /><rect fill="#161b22" height="11" rx="2" width="11" x="637" y="40" /><rect fill="#161b22" height="11" rx="2" width="11" x="637" y="54" /><rect fill="#161b22" height="11" rx="2" width="11" x="637" y="68" /><rect fill="#161b22" height="11" rx="2" width="11" x="637" y="82" /><rect fill="#161b22" height="11" rx="2" width="11" x="637" y="96" /><rect fill="#161b22" height="11" rx="2" width="11" x="637" y="110" /><rect fill="#161b22" height="11" rx="2" width="11" x="637" y="124" /><rect fill="#161b22" height="11" rx="2" width="11" x="651" y="40" /><rect fill="#161b22" height="11" rx="2" width="11" x="651" y="54" /><rect fill="#161b22" height="11" rx="2" width="11" x="651" y="68" /><rect fill="#161b22" height="11" rx="2" width="11" x="651" y="82" /><rect fill="#161b22" height="11" rx="2" width="11" x="651" y="96" /><rect fill="#161b22" height="11" rx="2" width="11" x="651" y="110" /><rect fill="#161b22" height="11" rx="2" width="11" x="651" y="124" /><rect fill="#161b22" height="11" rx="2" width="11" x="665" y="40" /><rect fill="#161b22" height="11" rx="2" width="11" x="665" y="54" /><rect fill="#161b22" height="11" rx="2" width="11" x="665" y="68" /><rect fill="#161b22" height="11" rx="2" width="11" x="665" y="82" /><rect fill="#161b22" height="11" rx="2" width="11" x="665" y="96" /><rect fill="#161b22" height="11" rx="2" width="11" x="665" y="110" /><rect fill="#161b22" height="11" rx="2" width="11" x="665" y="124" /><rect fill="#161b22" height="11" rx="2" width="11" x="679" y="40" /><rect fill="#161b22" height="11" rx="2" width="11" x="679" y="54" /><rect fill="#26a641" height="11" rx="2" width="11" x="679" y="68" /><rect fill="#161b22" height="11" rx="2" width="11" x="679" y="82" /><rect fill="#161b22" height="11" rx="2" width="11" x="679" y="96" /><rect fill="#161b22" height="11" rx="2" width="11" x="679" y="110" /><rect fill="#161b22" height="11" rx="2" width="11" x="679" y="124" /><rect fill="#0e4429" height="11" rx="2" width="11" x="693" y="40" /><rect fill="#161b22" height="11" rx="2" width="11" x="693" y="54" /><rect fill="#161b22" height="11" rx="2" width="11" x="693" y="68" /><rect fill="#161b22" height="11" rx="2" width="11" x="693" y="82" /><rect fill="#161b22" height="11" rx="2" width="11" x="693" y="96" /><rect fill="#161b22" height="11" rx="2" width="11" x="693" y="110" /><rect fill="#161b22" height="11" rx="2" width="11" x="693" y="124" /><rect fill="#161b22" height="11" rx="2" width="11" x="707" y="40" /><rect fill="#161b22" height="11" rx="2" width="11" x="707" y="54" /><rect fill="#161b22" height="11" rx="2" width="11" x="707" y="68" /><rect fill="#161b22" height="11" rx="2" width="11" x="707" y="82" /><rect fill="#161b22" height="11" rx="2" width="11" x="707" y="96" /><rect fill="#0e4429" height="11" rx="2" width="11" x="707" y="110" /><rect fill="#161b22" height="11" rx="2" width="11" x="707" y="124" /><rect fill="#161b22" height="11" rx="2" width="11" x="721" y="40" /><rect fill="#161b22" height="11" rx="2" width="11" x="721" y="54" /><rect fill="#0e4429" height="11" rx="2" width="11" x="721" y="68" /><rect fill="#161b22" height="11" rx="2" width="11" x="721" y="82" /><rect fill="#161b22" height="11" rx="2" width="11" x="721" y="96" /><rect fill="#161b22" height="11" rx="2" width="11" x="721" y="110" /><rect fill="#39d353" height="11" rx="2" width="11" x="721" y="124" /><rect fill="#161b22" height="11" rx="2" width="11" x="735" y="40" /><rect fill="#161b22" height="11" rx="2" width="11" x="735" y="54" /><rect fill="#161b22" height="11" rx="2" width="11" x="735" y="68" /><rect fill="#161b22" height="11" rx="2" width="11" x="735" y="82" /><rect fill="#161b22" height="11" rx="2" width="11" x="735" y="96" /><rect fill="#26a641" height="11" rx="2" width="11" x="735" y="110" /><rect fill="#0e4429" height="11" rx="2" width="11" x="735" y="124" /><rect fill="#161b22" height="11" rx="2" width="11" x="749" y="40" /><rect fill="#161b22" height="11" rx="2" width="11" x="749" y="54" /><rect fill="#006d32" height="11" rx="2" width="11" x="749" y="68" /><rect fill="#161b22" height="11" rx="2" width="11" x="749" y="82" /><rect fill="#161b22" height="11" rx="2" width="11" x="749" y="96" /><rect fill="#161b22" height="11" rx="2" width="11" x="749" y="110" /><rect fill="#161b22" height="11" rx="2" width="11" x="749" y="124" /><rect fill="#161b22" height="11" rx="2" width="11" x="763" y="40" /><text class="legend-text" x="639" y="159">Less</text><rect fill="#161b22" height="11" rx="2" width="11" x="667" y="151" /><rect fill="#0e4429" height="11" rx="2" width="11" x="681" y="151" /><rect fill="#006d32" height="11" rx="2" width="11" x="695" y="151" /><rect fill="#26a641" height="11" rx="2" width="11" x="709" y="151" /><rect fill="#39d353" height="11" rx="2" width="11" x="723" y="151" /><text class="legend-text" x="741" y="159">More</text></svg>